<?xml version="1.0" encoding="UTF-8" standalone="no"?>
<svg
   xmlns:dc="http://purl.org/dc/elements/1.1/"
   xmlns:cc="http://creativecommons.org/ns#"
   xmlns:rdf="http://www.w3.org/1999/02/22-rdf-syntax-ns#"
   xmlns:svg="http://www.w3.org/2000/svg"
   xmlns="http://www.w3.org/2000/svg"
   xmlns:sodipodi="http://sodipodi.sourceforge.net/DTD/sodipodi-0.dtd"
   xmlns:inkscape="http://www.inkscape.org/namespaces/inkscape"
   height="25"
   id="Layer_1"
   version="1.2"
   viewBox="0 0 21 25"
   width="21"
   xml:space="preserve"
   sodipodi:docname="pinterest.svg"
   inkscape:version="0.92.1 r15371"><metadata
     id="metadata11"><rdf:RDF><cc:Work
         rdf:about=""><dc:format>image/svg+xml</dc:format><dc:type
           rdf:resource="http://purl.org/dc/dcmitype/StillImage" /><dc:title></dc:title></cc:Work></rdf:RDF></metadata><defs
     id="defs9" /><sodipodi:namedview
     pagecolor="#ffffff"
     bordercolor="#666666"
     borderopacity="1"
     objecttolerance="10"
     gridtolerance="10"
     guidetolerance="10"
     inkscape:pageopacity="0"
     inkscape:pageshadow="2"
     inkscape:window-width="1920"
     inkscape:window-height="1018"
     id="namedview7"
     showgrid="false"
     showborder="false"
     inkscape:zoom="9.8333333"
     inkscape:cx="8.4406779"
     inkscape:cy="12"
     inkscape:window-x="-8"
     inkscape:window-y="-8"
     inkscape:window-maximized="1"
     inkscape:current-layer="Layer_1"
     inkscape:showpageshadow="false" /><g
     id="g4"
     transform="matrix(1.7081605,0,0,1.6127404,-10.528334,-7.6723484)"><path
       id="path2"
       d="m 12.486,4.771 c -4.23,0 -6.363,3.033 -6.363,5.562 0,1.533 0.581,2.894 1.823,3.401 0.205,0.084 0.387,0.004 0.446,-0.221 0.041,-0.157 0.138,-0.553 0.182,-0.717 0.061,-0.221 0.037,-0.3 -0.127,-0.495 -0.359,-0.422 -0.588,-0.972 -0.588,-1.747 0,-2.25 1.683,-4.264 4.384,-4.264 2.392,0 3.706,1.463 3.706,3.412 0,2.568 -1.137,4.734 -2.824,4.734 -0.932,0 -1.629,-0.77 -1.405,-1.715 0.268,-1.13 0.786,-2.347 0.786,-3.16 0,-0.729 -0.392,-1.336 -1.2,-1.336 -0.952,0 -1.718,0.984 -1.718,2.304 0,0.841 0.286,1.409 0.286,1.409 0,0 -0.976,4.129 -1.146,4.852 -0.34,1.44 -0.051,3.206 -0.025,3.385 0.013,0.104 0.149,0.131 0.21,0.051 0.088,-0.115 1.223,-1.517 1.607,-2.915 0.111,-0.396 0.627,-2.445 0.627,-2.445 0.311,0.589 1.213,1.108 2.175,1.108 2.863,0 4.804,-2.608 4.804,-6.103 -0.003,-2.64 -2.24,-5.1 -5.64,-5.1 z"
       inkscape:connector-curvature="0" /></g></svg>