<?xml version="1.0" encoding="UTF-8" standalone="no"?>
<svg
   xmlns:dc="http://purl.org/dc/elements/1.1/"
   xmlns:cc="http://creativecommons.org/ns#"
   xmlns:rdf="http://www.w3.org/1999/02/22-rdf-syntax-ns#"
   xmlns:svg="http://www.w3.org/2000/svg"
   xmlns="http://www.w3.org/2000/svg"
   xmlns:sodipodi="http://sodipodi.sourceforge.net/DTD/sodipodi-0.dtd"
   xmlns:inkscape="http://www.inkscape.org/namespaces/inkscape"
   height="25"
   id="Layer_1"
   version="1.2"
   viewBox="0 0 31 25"
   width="31"
   xml:space="preserve"
   sodipodi:docname="twitter.svg"
   inkscape:version="0.92.1 r15371"><metadata
     id="metadata11"><rdf:RDF><cc:Work
         rdf:about=""><dc:format>image/svg+xml</dc:format><dc:type
           rdf:resource="http://purl.org/dc/dcmitype/StillImage" /><dc:title></dc:title></cc:Work></rdf:RDF></metadata><defs
     id="defs9" /><sodipodi:namedview
     pagecolor="#ffffff"
     bordercolor="#666666"
     borderopacity="1"
     objecttolerance="10"
     gridtolerance="10"
     guidetolerance="10"
     inkscape:pageopacity="0"
     inkscape:pageshadow="2"
     inkscape:window-width="1920"
     inkscape:window-height="1018"
     id="namedview7"
     showgrid="false"
     showborder="false"
     inkscape:zoom="9.8333333"
     inkscape:cx="-40.474576"
     inkscape:cy="-6.1107312"
     inkscape:window-x="-8"
     inkscape:window-y="-8"
     inkscape:window-maximized="1"
     inkscape:current-layer="Layer_1"
     inkscape:showpageshadow="false" /><path
     id="path2-0"
     d="m 30.882194,3.0639383 c -1.14309,0.5013 -2.36503,0.83984 -3.65267,0.99609 1.31391,-0.78125 2.32563,-2.01823 2.79863,-3.48958003 -1.2285,0.72266003 -2.5884,1.25000003 -4.04027,1.52995003 -1.16281,-1.23047003 -2.81834,-1.99870003 -4.64467,-1.99870003 -3.514697,0 -6.359318,2.82552003 -6.359318,6.30859003 0,0.4948 0.0526,0.97657 0.16424,1.43881 -5.2884897,-0.26042 -9.9791397,-2.77344 -13.1128197,-6.59506 -0.54527,0.93099 -0.86061,2.01823 -0.86061,3.17058 0,2.1875 1.12339,4.12109 2.83148,5.2539 -1.04457,-0.026 -2.02999,-0.3125 -2.88403,-0.78776 0,0.026 0,0.0521 0,0.0781 0,3.0598897 2.19422,5.6054697 5.10453,6.1848897 -0.53213,0.14323 -1.09711,0.22136 -1.67523,0.22136 -0.40731,0 -0.80805,-0.0391 -1.19566,-0.11719 0.80805,2.506505 3.15995,4.329425 5.94544,4.381505 -2.17452,1.69271 -4.92059,2.70182 -7.90317,2.70182 -0.51241999,0 -1.01826999,-0.0326 -1.51755999,-0.0911 2.81176999,1.80989 6.15566999,2.85156 9.74263999,2.85156 11.7069377,0 18.1056677,-9.615885 18.1056677,-17.9557247 0,-0.27344 -0.007,-0.54687 -0.0197,-0.8138 1.24164,-0.89193 2.31905,-2.00521 3.17309,-3.26823 z"
     inkscape:connector-curvature="0"
     style="stroke-width:0.06539916" /></svg>